name analog
datacolumns 19
datarows 19
range 0.0 0.009000000000000001
endheader
time	ground_force_vx	ground_force_vy	ground_force_vz	ground_force_px	ground_force_py	ground_force_pz	l_ground_force_vx	l_ground_force_vy	l_ground_force_vz	l_ground_force_px	l_ground_force_py	l_ground_force_pz	ground_torque_x	ground_torque_y	ground_torque_z	l_ground_torque_x	l_ground_torque_y	l_ground_torque_z
0.0	-0.0	-0.0	-0.0	-0.0	-0.0	-0.0	0.3935244977474212	-46.42999649047852	-685.626220703125	-0.0	-0.0	-0.0	-0.0	-0.0	-0.0	201135.234375	19759.703125	-1689.428955078125
0.0005	-0.0	-0.0	-0.0	-0.0	-0.0	-0.0	0.7871262431144714	-46.56797409057617	-687.13037109375	-0.0	-0.0	-0.0	-0.0	-0.0	-0.0	201263.96875	19687.75390625	-1507.4180908203125
0.001	-0.0	-0.0	-0.0	-3.705152750015259	-0.1000493392348289	-11.496942520141602	0.7596517205238342	-46.95973587036133	-687.0862426757812	-0.0	-0.0	-0.0	-0.0	-0.0	-0.0	201561.734375	19569.828125	-1392.641357421875
0.0015	-0.0	-0.0	-0.0	-4.863173961639404	0.8672215342521667	-26.858400344848636	1.3529473543167114	-47.43983840942383	-688.28662109375	-0.0	-0.0	-0.0	-0.0	-0.0	-0.0	201316.78125	19762.765625	-1210.6181640625
0.002	-0.0	-0.0	-0.0	-2.594003200531006	0.1390774548053741	-36.54813766479492	1.4692606925964355	-47.406715393066406	-686.7377319335938	-0.0	-0.0	-0.0	-0.0	-0.0	-0.0	201115.890625	19601.568359375	-1141.9300537109375
0.0025	-0.0	-0.0	-0.0	0.4996593594551086	-0.3458098769187927	-44.24679565429688	1.4912625551223757	-47.42296600341797	-684.5562744140625	-0.0	-0.0	-0.0	-0.0	-0.0	-0.0	200785.203125	19729.591796875	-913.8965454101562
0.003	-0.0	-0.0	-0.0	3.043801069259644	-0.9518203735351562	-54.47398376464844	1.8847997188568115	-47.7046012878418	-683.2036743164062	-0.0	-0.0	-0.0	-0.0	-0.0	-0.0	200354.078125	19460.24609375	-904.3547973632812
0.0035	-0.0	-0.0	-0.0	4.035604953765869	-1.1510777473449707	-65.81695556640625	2.018629312515259	-47.379180908203125	-679.602294921875	-0.0	-0.0	-0.0	-0.0	-0.0	-0.0	199186.9375	19227.025390625	-689.2403564453125
0.004	-0.0	-0.0	-0.0	4.966938018798828	-1.1980135440826416	-77.9074935913086	2.2567265033721924	-47.21331787109375	-677.0733032226562	-0.0	-0.0	-0.0	-0.0	-0.0	-0.0	198309.84375	19533.306640625	-550.1459350585938
0.0045000000000000005	-0.0	-0.0	-0.0	4.896140575408936	-0.9515110850334167	-88.06576538085938	1.9906269311904907	-46.89881896972656	-674.1695556640625	-0.0	-0.0	-0.0	-0.0	-0.0	-0.0	197279.265625	19329.19921875	-429.3816223144531
0.005	-0.0	-0.0	-0.0	5.035213947296143	-0.1886111199855804	-99.71977996826172	1.880646586418152	-46.64446258544922	-668.3040161132812	-0.0	-0.0	-0.0	-0.0	-0.0	-0.0	195985.71875	19440.3515625	-383.0919799804688
0.0055	-0.0	-0.0	-0.0	5.244519710540772	-0.2176896631717682	-111.17684936523438	1.9304834604263303	-45.8989143371582	-663.5418090820312	-0.0	-0.0	-0.0	-0.0	-0.0	-0.0	193855.21875	19509.486328125	-346.1166076660156
0.006	-0.0	-0.0	-0.0	5.759192943572998	0.4660935401916504	-122.91227722167967	1.3306617736816406	-44.86741638183594	-657.2986450195312	-0.0	-0.0	-0.0	-0.0	-0.0	-0.0	192240.890625	19818.94140625	-457.9242248535156
0.006500000000000001	-0.0	-0.0	-0.0	6.433309078216553	1.0402143001556396	-132.9564208984375	1.0749773979187012	-43.89588165283203	-649.45263671875	-0.0	-0.0	-0.0	-0.0	-0.0	-0.0	190172.046875	19860.95703125	-475.4181823730469
0.007	-0.0	-0.0	-0.0	6.918851852416992	1.7926735877990725	-141.0384521484375	0.5322647094726562	-42.98168563842773	-640.6524047851562	-0.0	-0.0	-0.0	-0.0	-0.0	-0.0	187597.203125	20047.7734375	-442.40130615234375
0.0075	-0.0	-0.0	-0.0	7.037607192993164	1.8321802616119385	-148.96453857421875	-0.1877409517765045	-41.83366012573242	-632.6221313476562	-0.0	-0.0	-0.0	-0.0	-0.0	-0.0	185064.125	20387.474609375	-617.146728515625
0.008	-0.0	-0.0	-0.0	7.969422817230225	2.416457176208496	-156.22364807128906	-0.2866166234016418	-40.352813720703125	-623.3094482421875	-0.0	-0.0	-0.0	-0.0	-0.0	-0.0	182445.671875	20742.158203125	-735.510009765625
0.0085	-0.0	-0.0	-0.0	8.088151931762695	3.2581889629364014	-160.26475524902344	-1.183734893798828	-39.51889801025391	-612.4864501953125	-0.0	-0.0	-0.0	-0.0	-0.0	-0.0	179876.875	20973.03515625	-861.4033203125
0.009000000000000001	-0.0	-0.0	-0.0	7.701972007751465	3.5750319957733154	-166.150146484375	-1.3217343091964722	-38.38081359863281	-600.7704467773438	-0.0	-0.0	-0.0	-0.0	-0.0	-0.0	176686.84375	21441.994140625	-906.97998046875
